<svg xmlns="http://www.w3.org/2000/svg" xmlns:xlink="http://www.w3.org/1999/xlink" width="89" height="85" viewBox="0 0 89 85"><defs><path id="apepa" d="M507 3941c0 16.57-13.2 30-29.5 30s-29.5-13.43-29.5-30 13.2-30 29.5-30 29.5 13.43 29.5 30z"/><path id="apepb" d="M493.26 3968c-.43 0-.84-.2-1.1-.53l-43.85-55.02a1.4 1.4 0 0 1-.1-1.6l12.72-21.17c.26-.42.72-.68 1.22-.68h39.6v2.82h-38.8l-11.82 19.64 42.14 52.87 21.52-26.84 2.21 1.77-22.63 28.21c-.27.34-.68.53-1.1.53"/><path id="apepc" d="M524.31 3928l-2.12-1.79 11.76-14.75-11.48-19.64H515V3889h8.25c.48 0 .93.26 1.18.69l12.37 21.17c.3.5.26 1.15-.11 1.62z"/><path id="apepd" d="M500 3912h36v-3h-36z"/><path id="apepe" d="M449 3912h36v-3h-36z"/><path id="apepf" d="M508.3 3912l-2.3-1.68 15.7-21.32 2.3 1.68z"/><path id="apepg" d="M506.7 3912l-15.7-21.32 2.3-1.68 15.7 21.32z"/><path id="apeph" d="M478.3 3912l-2.3-1.68 15.7-21.32 2.3 1.68z"/><path id="apepi" d="M475.7 3912l-15.7-21.32 2.3-1.68 15.7 21.32z"/><path id="apepj" d="M491.32 3966L476 3911.76l2.68-.76 15.32 54.24z"/><path id="apepk" d="M493.68 3966l-2.68-.76 15.32-54.24 2.68.76z"/><path id="apepl" d="M506 3895h3v-9h-3z"/><path id="apepm" d="M504 3892h9v-3h-9z"/><path id="apepn" d="M491 3916h3v-9h-3z"/><path id="apepo" d="M489 3912h9v-3h-9z"/><path id="apepp" d="M462 3950h3v-9h-3z"/><path id="apepq" d="M459 3946h9v-3h-9z"/><path id="apepr" d="M518 3937h3v-9h-3z"/><path id="apeps" d="M515 3934h9v-3h-9z"/></defs><g><g transform="translate(-448 -3886)"><g><use fill="#ecf5f8" xlink:href="#apepa"/></g><g><use fill="#3eb4f0" xlink:href="#apepb"/></g><g><use fill="#3eb4f0" xlink:href="#apepc"/></g><g><use fill="#3eb4f0" xlink:href="#apepd"/></g><g><use fill="#3eb4f0" xlink:href="#apepe"/></g><g><use fill="#3eb4f0" xlink:href="#apepf"/></g><g><use fill="#3eb4f0" xlink:href="#apepg"/></g><g><use fill="#3eb4f0" xlink:href="#apeph"/></g><g><use fill="#3eb4f0" xlink:href="#apepi"/></g><g><use fill="#3eb4f0" xlink:href="#apepj"/></g><g><use fill="#3eb4f0" xlink:href="#apepk"/></g><g><use fill="#3eb4f0" xlink:href="#apepl"/></g><g><use fill="#3eb4f0" xlink:href="#apepm"/></g><g><use fill="#3eb4f0" xlink:href="#apepn"/></g><g><use fill="#3eb4f0" xlink:href="#apepo"/></g><g><use fill="#3eb4f0" xlink:href="#apepp"/></g><g><use fill="#3eb4f0" xlink:href="#apepq"/></g><g><use fill="#3eb4f0" xlink:href="#apepr"/></g><g><use fill="#3eb4f0" xlink:href="#apeps"/></g></g></g></svg>